<?xml version="1.0" encoding="utf-8"?>
<!-- Generator: Adobe Illustrator 18.1.1, SVG Export Plug-In . SVG Version: 6.00 Build 0)  -->
<!DOCTYPE svg PUBLIC "-//W3C//DTD SVG 1.1//EN" "http://www.w3.org/Graphics/SVG/1.1/DTD/svg11.dtd">
<svg version="1.1" id="_x32_" xmlns="http://www.w3.org/2000/svg" xmlns:xlink="http://www.w3.org/1999/xlink" x="0px" y="0px"
	 viewBox="0 0 512 512" style="enable-background:new 0 0 512 512;" xml:space="preserve">
<style type="text/css">
	.st0{fill:#000000;}
</style>
<g>
	<path class="st0" d="M382.25,180.249c44.544,0,80.654-36.106,80.654-80.654S426.793,18.94,382.25,18.94
		c-44.548,0-80.659,36.106-80.659,80.654S337.701,180.249,382.25,180.249z"/>
	<rect y="439.76" class="st0" width="512" height="53.3"/>
	<path class="st0" d="M357.701,425.733h111.516V288.265c0-48.026-38.937-86.973-86.968-86.973
		c-48.035,0-86.973,38.947-86.973,86.973v81.353h62.424V425.733z"/>
	<polygon class="st0" points="127.42,425.733 261.848,425.733 343.67,425.733 343.67,383.645 242.498,383.645 199.892,267.921 
		1.173,267.921 63.124,425.733 	"/>
</g>
</svg>
