<?xml version="1.0" encoding="UTF-8"?>
<svg id="_レイヤー_3" data-name="レイヤー 3" xmlns="http://www.w3.org/2000/svg" viewBox="0 0 172.38 201.93">
  <defs>
    <style>
      .cls-1 {
        fill: #c0392b;
      }
    </style>
  </defs>
  <path class="cls-1" d="M89.3,1.18c1.98-1.42,4.54-1.56,6.66-.42,2.27,1.98,4.96,3.4,7.94,3.97,2.41-.14,4.82.71,6.66,2.41,1.28,2.27.85,5.24-.99,7.09-.99,1.7-1.28,3.82-.99,5.81,4.11-.99,8.36-1.84,12.61-2.55,2.98.14,5.81,1.28,8.22,3.12.99,2.55.28,5.39-1.84,7.23-2.55,1.84-5.53,2.98-8.64,3.4,2.98,2.84,5.67,5.95,8.08,9.5,1.99.28,3.97.28,5.81-.14,3.4-.28,6.8.57,9.5,2.41,2.27,1.42,3.54,4.11,3.4,6.8-.28,1.7-1.28,3.12-2.84,3.69-3.26.42-6.52.28-9.78-.28-2.98-.57-5.95-.57-8.93.14-.99,2.55-2.13,5.25-3.26,7.8,2.83,1.28,5.38,2.98,7.65,5.25,2.27,1.7,2.13,5.38-.28,6.94-3.54.85-7.23,1.28-10.91.99-3.4.57-6.8,1.14-10.21,1.84,2.55,1.13,4.39,3.4,4.96,6.09.14,2.98-.28,5.95-1.42,8.64-1.84,4.96-2.69,10.21-2.84,15.45-.57,4.68.99,9.35,4.25,12.9,2.27,1.98,5.38,2.84,8.5,2.41,2.69-.42,5.24-1.56,7.51-3.26,1.84-2.27,2.84-5.24,2.55-8.36.42-5.24.71-10.49.85-15.87,3.12,5.67,6.38,11.2,9.5,16.87.28,2.27,1.42,4.39,3.26,5.81,2.27.71,3.68,2.98,3.54,5.25-.99,3.12-2.41,5.95-4.11,8.5-5.95,3.4-12.61,5.1-19.42,4.68-5.67.99-11.48-.42-15.87-4.11-4.54-2.84-7.65-7.23-8.93-12.47-2.27-8.36-2.55-17.15-.85-25.65.28-3.54.57-7.09.99-10.49-1.28-1.42-2.41-2.98-3.26-4.54-2.98.28-5.67.99-8.36,2.12,1.42,2.69,2.98,5.24,4.68,7.65,1.13,2.69.85,5.81-.99,8.22-1.14,5.39-2.55,10.77-4.39,16.02-1.42,5.38-4.39,10.2-8.65,13.75-3.12,3.68-7.51,6.09-12.33,6.52-4.82.57-9.64.57-14.31.28,5.95-3.54,11.2-8.22,15.45-13.89,3.4-5.53,6.66-11.05,9.92-16.58,1.98-4.11,3.26-8.65,3.97-13.18,0-2.12-.57-4.25-1.7-6.09-4.39-1.84-8.36-4.39-12.05-7.37-.28,7.8-.71,15.45-.85,23.24.28,3.97-1.42,7.8-4.39,10.21-1.56,2.12-4.82,1.98-6.09-.28-3.12-2.98-4.68-7.37-3.83-11.62,0-1.98,0-3.97.14-5.95-1.84.71-3.69,1.56-5.24,2.69-.99.42-1.7,1.56-1.56,2.55-.85,3.12-3.26,5.39-6.38,5.95-3.4-1.56-6.09-4.25-7.65-7.8-1.84-2.55-2.83-5.67-3.12-8.93.14-2.55.42-4.96.85-7.51.71-10.63.85-21.4.71-32.17-.71-3.4-1.98-6.8-3.54-9.92-1.42-1.99-2.13-4.39-2.13-6.8,1.56-3.26,4.39-5.53,7.8-6.52,5.53-1.98,11.2-3.54,17.01-4.82,1.7-.99,3.54-1.56,5.53-1.56,2.84.42,5.53,1.42,7.94,2.98,2.84.99,5.39,2.41,7.8,4.25,1.42.85,2.13,2.55,1.84,4.25-1.7,4.11-3.26,8.22-4.39,12.47-.99,3.83-1.27,7.8-.85,11.62,2.27-.28,4.54-.57,6.8-.99-1.42-2.98-2.55-5.95-3.26-9.21-.43-1.42.28-2.84,1.7-3.26,3.26.57,6.09,2.55,7.94,5.24,1.27,1.42,3.12,2.55,5.1,2.98,2.98.28,5.95-.42,8.51-2.12.28-2.13.14-4.25-.14-6.24-2.12.99-4.54.99-6.66,0-2.98-1.84-6.09-3.69-9.21-5.25-1.98-1.42-3.12-3.82-2.84-6.24,2.55-1.13,5.39-1.42,8.08-.85,3.69-.28,7.37-.99,10.91-2.13.42-3.4.28-6.94-.28-10.35-.85-2.55-2.55-4.68-4.54-6.38-1.42-1.7-1.42-4.11,0-5.81ZM54.58,79.27c-.42-5.38-.57-10.77-.57-16.16-4.39,1.28-8.79,2.69-12.9,4.39.28,4.96.85,9.92,1.28,14.88,3.97-1.28,8.08-2.27,12.19-3.12ZM53.73,49.94c.71-2.41.85-4.96.43-7.37,0-3.26-.28-6.52-.85-9.78.28-2.41-1.84-4.39-4.25-3.97-2.84-.28-5.53,1.42-6.52,4.11-1.42,1.7-.85,4.54,1.42,5.25,1.42,1.84,1.7,4.25.85,6.24-.43,2.41-.71,4.68-.71,7.09,3.26-.43,6.52-.85,9.64-1.56ZM76.69,69.92c.71-1.14.71-2.69-.14-3.83.28-1.56-.99-2.84-2.55-2.84-2.27-.57-4.54-1.13-6.8-1.7-.28,3.68-.28,7.51.14,11.34,3.12-.85,6.24-1.84,9.35-2.98ZM104.75,63.4c1.42-1.13,2.55-2.69,3.26-4.39,1.56-.99,1.7-3.26.28-4.39-2.13-.14-4.25.14-6.24.71,0,1.27-.85,2.41-2.12,2.55-1.42-.42-2.84-1.13-4.25-1.98-2.27.43-4.68,1.14-6.95,1.84-.57.85-.71,1.98-.42,2.98.14,1.42.28,2.98.28,4.39-.28.71,0,1.42.42,1.7.57.42,1.28.57,1.84.14,4.54-1.42,9.21-2.69,13.89-3.54ZM114.25,42.28c-.57-2.83-1.42-5.53-2.41-8.22-1.28,0-2.55.14-3.83.42-.99-.28-1.84.57-1.84,1.7.28,2.27,0,4.54-.71,6.66,2.98-.14,5.81-.28,8.79-.57Z"/>
  <g>
    <path d="M30.54,186.07c3.72.3,7.5.78,11.22,1.44,1.56-.48,3.18-.48,4.74,0,3,1.14,5.52,3.24,7.08,6.06.18.96,0,1.98-.42,2.88-.36.72-1.14,1.08-1.92.96-2.4-.24-4.74-.9-6.96-1.8-11.16-3.3-23.1-2.58-33.84,1.98-1.14.78-2.7.72-3.84-.12-2.34-1.08-4.32-2.76-5.82-4.86-.48-.72-.72-1.56-.78-2.4,0-.6.54-.9,1.02-.66.6.42,1.32.6,2.04.48,6.3-.9,12.6-1.92,18.9-3.06.78-5.94,1.08-11.94.84-17.94-.36-1.86-1.32-3.6-2.76-4.86-1.5.3-3,.12-4.38-.48-1.86-.9-3.54-2.16-4.98-3.66-.9-.84-1.44-1.98-1.5-3.24-.12-.96.84-1.8,1.74-1.38,2.22,0,4.38-.12,6.54-.3,4.8-.78,9.6-1.68,14.34-2.64.84-.48,1.74-.9,2.58-1.32,1.08-.72,2.46-.84,3.66-.3,2.22,1.02,4.32,2.34,6.18,3.9.48,1.02.6,2.16.42,3.3-.48,1.2-1.86,1.86-3.12,1.44-4.56.18-9.06.66-13.56,1.5,1.44,1.32,2.7,2.82,3.78,4.44,1.02,1.62,1.14,3.66.24,5.34-.72,2.64-1.2,5.34-1.5,7.98-.24,2.46-.24,4.92.06,7.32Z"/>
    <path d="M72.48,174.19c.06.36.06.78-.06,1.14,1.02.9,1.92,1.92,2.7,3.06.72.9,1.14,2.04,1.14,3.24-.06,3.78,0,7.62.12,11.4,0,1.68-.36,3.36-1.08,4.92-.48.84-1.44,1.32-2.46,1.26-.6-.18-1.2-.42-1.74-.78-1.5-.48-2.94-1.02-4.38-1.68-1.26-.42-2.4-1.2-3.3-2.22,1.08-.84,2.46-1.32,3.84-1.32,1.68-.36,3.12-1.38,4.02-2.82.24-2.52.24-5.04.12-7.56-.48-1.14-.72-2.46-.6-3.72-.9,1.86-1.8,3.72-2.76,5.58-.78,1.38-2.04,2.4-3.48,2.94-1.5.42-3.12.42-4.62,0,.72-1.14,1.5-2.22,2.34-3.3,1.74-2.88,3.36-5.82,4.92-8.88.6-1.08.54-2.52-.18-3.54-.06,1.2-.9,2.22-2.1,2.4-2.04-.24-3.96-.9-5.64-1.98-.54-.42-.72-1.2-.48-1.8.6-.54,1.44-.72,2.16-.42,2.82-1.02,5.52-2.22,8.16-3.66-1.26-1.68-2.64-3.18-4.2-4.62-.84-.6-.54-1.86.42-2.1,1.92-.12,3.84.24,5.64,1.08,1.2-1.44,2.1-3.12,2.64-4.92-.9.48-1.68,1.14-2.4,1.86-.78.72-1.98.9-2.94.3-1.56-.84-3.06-1.62-4.62-2.46-.6-.48-.54-1.38.12-1.8,2.94-1.26,6-2.34,9.06-3.3.72-1.08,1.98-1.62,3.24-1.32,2.1.48,4.02,1.38,5.76,2.7,1.02,1.02.9,2.64-.18,3.54-1.56.84-2.94,1.86-4.26,3-1.26,1.32-2.4,2.76-3.3,4.32.24.54.36,1.02.42,1.56.66-.18,1.26-.36,1.92-.48.96-.72,2.22-.78,3.24-.18,1.44.72,2.76,1.56,4.02,2.52.96.54.9,1.92-.06,2.46-1.32.18-2.58.72-3.66,1.44-.96,1.08-2.04,2.04-3.18,2.94-1.26.84-2.82,1.26-4.32,1.2ZM75.3,168.43c-2.16.18-4.2.9-5.94,2.1,1.26.42,2.34,1.32,2.94,2.52.42-.9,1.02-1.74,1.68-2.52.66-.54,1.14-1.26,1.32-2.1ZM97.74,157.27c.3.72.54,1.5.72,2.22.42.96.06,2.1-.84,2.58-.6.84-1.08,1.74-1.32,2.7,1.2.9,2.34,1.98,3.42,3.06,2.46,1.38,5.04,2.52,7.74,3.42,2.34.84,4.74,1.68,7.02,2.58.84,1.08.42,2.64-.84,3.12-1.44.72-3,1.26-4.56,1.62-1.26.36-2.64.36-3.9-.06.42.48.84.96,1.32,1.38.84.84.78,2.16-.12,2.94-.66,4.86-2.16,9.66-4.38,14.04-.96,1.56-2.16,2.88-3.6,3.9-.72.54-1.5.78-2.34.72-.84-.06-1.5-.66-1.5-1.5-1.14-1.02-2.34-1.98-3.54-2.88-1.32-.96-2.4-2.1-3.3-3.42,1.5-.54,3.06-.72,4.62-.54,1.98,0,3.78-1.02,4.86-2.64.72-2.1,1.26-4.26,1.68-6.48.42-1.02.24-2.16-.54-2.94-.66-.6-1.56-.9-2.46-.84-1.14,2.94-2.7,5.76-4.56,8.34-1.44,1.98-3.18,3.66-5.16,4.98-2.22,1.08-4.68,1.56-7.14,1.44,3.18-3.36,6-7.08,8.34-11.1-1.5-.78-3-1.56-4.56-2.28-.48-.12-.9-.54-.9-1.02,0-.54.42-.96.9-1.08,2.46-.6,4.86-1.32,7.26-1.98.66-1.02.72-2.34.12-3.36-1.2,1.02-2.46,1.86-3.9,2.52-1.26.48-2.58.66-3.9.6-2.1.12-4.2-.18-6.12-.9,1.98-1.38,4.08-2.7,6.18-3.96,3.06-1.74,5.7-4.14,7.68-7.08-1.56-.3-3.18-.66-4.74-1.02-1.14-.6-2.16-1.44-2.88-2.58-.96-.06-1.92-.06-2.82,0,1.14-.72,2.1-1.74,2.64-3,.9-1.5,1.5-3.18,1.8-4.86.3-1.62-.3-3.24-1.44-4.32-.48-.54-.66-1.32-.54-2.04.78-.36,1.68-.48,2.52-.3,2.04.6,4.08,1.56,5.88,2.82,1.02.66,1.62,1.86,1.44,3.06,2.52-.48,4.98-1.14,7.32-1.98.9-1.02,2.22-1.56,3.6-1.44,1.74.12,3.42.6,4.86,1.56,1.08,1.08.9,2.94-.42,3.78-1.08.48-2.28.78-3.48.78-2.1.12-4.2.6-6.12,1.44ZM90.3,156.01c-.36.9-.78,1.74-1.26,2.58-.54.78-1.32,1.44-2.16,1.8,1.08,0,2.22.24,3.24.72.66.3,1.32.66,1.98,1.08.12-.9.42-1.74.9-2.52.48-1.02.42-2.16-.18-3.06-.9,0-1.74-.18-2.52-.6ZM92.4,171.61c.96.36,1.8.9,2.52,1.68.9.66,1.5,1.62,1.68,2.7.96-.18,1.92-.12,2.82.06,1.2.48,2.4,1.02,3.54,1.68-2.52-3.3-5.34-6.3-8.52-9-.42,1.14-1.14,2.1-2.04,2.88Z"/>
    <path d="M121.26,193.69c2.76-3.42,4.74-7.5,5.76-11.82,1.32-5.4,2.04-10.98,1.98-16.56-.6-1.26-1.2-2.46-1.74-3.72-.3-1.02-.18-2.04.24-2.94.9-.12,1.8-.06,2.7.18,5.7-.78,11.4-1.44,17.16-1.92-.54-1.2-.84-2.52-.9-3.84-.66-1.56-1.44-3.12-2.34-4.62-.3-.96.6-1.92,1.62-1.74,1.38.24,2.76.54,4.08.96,1.98.72,3.84,1.74,5.46,3.06.66.78.48,1.92-.3,2.52-.48.66-.66,1.44-.48,2.22,1.8.12,3.66-.18,5.34-.84,1.14-.24,2.22-.66,3.24-1.26.9.18,1.8.54,2.64,1.02,2.04.48,3.96,1.38,5.7,2.52.48.48.84,1.08.96,1.74-.18.6-.48,1.08-.96,1.44-.78.24-1.5.6-2.22.96-2.7-.36-5.4-.48-8.1-.36-4.38-.24-8.82-.06-13.2.54-.3.12-.6.18-.9.12.3,0,.6.06.9.18,2.1.6,4.08,1.44,5.94,2.52.78.48,1.2,1.38,1.08,2.28-.06.3.06.66.36.78.3.18.66.12.9-.12,1.44-.3,2.88-.78,4.26-1.32.78-.72,1.86-.96,2.88-.72,1.86.12,3.6.72,5.1,1.86.54.78.6,1.8.18,2.64-.54.96-1.56,1.56-2.7,1.62-3.84,1.32-7.8,2.1-11.88,2.34-.24,1.5-.42,3-.54,4.5,1.68.12,3.36-.06,4.98-.54.54-.36,1.2-.66,1.86-.84.9,0,1.74.18,2.46.6,2.88,1.38,5.52,3.18,7.86,5.28.6.24.96.9.84,1.5,0,.84-.3,1.62-.84,2.22-1.32.78-2.46,1.86-3.24,3.18-.36,1.68-.84,3.3-1.44,4.86.96.42,1.56,1.5,1.38,2.58.12,1.98-1.86,3.48-3.78,2.88-4.62-1.02-9.3-1.08-13.92-.3-1.08.42-2.22.54-3.3.3-.48.42-.9.84-1.14,1.38-.36.72-1.2,1.08-1.92.84-1.68-1.26-3.12-2.7-4.38-4.38-.6-1.32-.66-2.82-.18-4.2.18-2.34-.06-4.68-.66-6.9-.24-.66-.72-1.14-1.38-1.32-.6-.66-.9-1.56-.84-2.46,0-.96.84-1.68,1.8-1.56,3.24-.96,6.54-1.8,9.9-2.46.36-3.3.36-6.66.12-10.02-.54-.96-1.2-1.86-1.92-2.7-.42-.66-.72-1.38-.78-2.16-.06-.48-.18-.96-.3-1.44-.72.06-1.44.12-2.1.24-2.04.54-4.02,1.26-5.94,2.16-1.08,1.26-1.74,2.88-1.8,4.5-.18,5.34-.84,10.62-1.92,15.84-.6,2.88-2.16,5.46-4.38,7.38-2.04,1.68-4.8,2.16-7.26,1.32ZM144.72,193.45c3.84-.72,7.74-1.08,11.7-1.08.96-.72,1.74-1.68,2.28-2.76.84-1.62,1.08-3.48.66-5.22-.06-1.26-1.2-2.22-2.46-1.98-3.12.3-6.3.84-9.3,1.68-.84,1.02-2.04,1.62-3.36,1.74.18,2.52.36,5.1.48,7.62Z"/>
  </g>
</svg>